<svg width="41" height="41" viewBox="0 0 41 41" fill="none" xmlns="http://www.w3.org/2000/svg">
<rect width="41" height="41" rx="4" fill="#FFF0E5"/>
<g clip-path="url(#clip0_250_41)">
<path d="M33.2828 8.125H7.71743C6.08887 8.125 4.76758 9.51074 4.76758 11.2188V29.7812C4.76758 31.4893 6.08887 32.875 7.71743 32.875H33.2828C34.9114 32.875 36.2327 31.4893 36.2327 29.7812V11.2188C36.2327 9.51074 34.9114 8.125 33.2828 8.125ZM7.71743 10.1875H33.2828C33.8236 10.1875 34.2661 10.6516 34.2661 11.2188V13.8871C32.9203 15.0795 30.9967 16.723 25.011 21.7053C23.9724 22.5689 21.9259 24.6508 20.5001 24.625C19.0744 24.6508 17.0218 22.5689 15.9893 21.7053C10.0036 16.723 8.08002 15.0795 6.73415 13.8871V11.2188C6.73415 10.6516 7.17663 10.1875 7.71743 10.1875ZM33.2828 30.8125H7.71743C7.17663 30.8125 6.73415 30.3484 6.73415 29.7812V16.5684C8.13533 17.7736 10.3477 19.6363 14.7664 23.3166C16.0262 24.3736 18.2509 26.7004 20.5001 26.6875C22.7371 26.7068 24.9434 24.3994 26.2339 23.3166C30.6526 19.6363 32.8649 17.7736 34.2661 16.5684V29.7812C34.2661 30.3484 33.8236 30.8125 33.2828 30.8125Z" fill="#027879"/>
</g>
<defs>
<clipPath id="clip0_250_41">
<rect width="31.4651" height="33" fill="white" transform="translate(4.76758 4)"/>
</clipPath>
</defs>
</svg>
