<svg width="41" height="41" viewBox="0 0 41 41" fill="none" xmlns="http://www.w3.org/2000/svg">
<path d="M20.5 15.6184C19.5346 15.6188 18.591 15.9054 17.7884 16.442C16.9859 16.9786 16.3605 17.7412 15.9913 18.6332C15.6221 19.5252 15.5257 20.5067 15.7143 21.4535C15.9029 22.4003 16.3679 23.2699 17.0507 23.9524C17.7335 24.635 18.6033 25.0997 19.5502 25.2879C20.497 25.4761 21.4785 25.3793 22.3703 25.0098C23.2622 24.6403 24.0245 24.0146 24.5608 23.2119C25.0971 22.4091 25.3834 21.4654 25.3834 20.5C25.3824 19.2053 24.8676 17.964 23.9519 17.0486C23.0362 16.1333 21.7947 15.6189 20.5 15.6184ZM31.9132 11.8662C31.6647 11.2364 31.2894 10.6644 30.8107 10.1857C30.3319 9.70692 29.7599 9.33166 29.1301 9.08315C27.2083 8.32446 22.6324 8.49469 20.5 8.49469C18.3676 8.49469 13.7963 8.31806 11.869 9.08315C11.2392 9.33166 10.6672 9.70692 10.1884 10.1857C9.70967 10.6644 9.3344 11.2364 9.08589 11.8662C8.32812 13.7881 8.49743 18.3686 8.49743 20.4991C8.49743 22.6296 8.32813 27.2046 9.08955 29.1329C9.33806 29.7627 9.71333 30.3347 10.1921 30.8134C10.6708 31.2922 11.2428 31.6674 11.8726 31.9159C13.7945 32.6746 18.3704 32.5044 20.5037 32.5044C22.6369 32.5044 27.2064 32.681 29.1338 31.9159C29.7636 31.6674 30.3356 31.2922 30.8143 30.8134C31.2931 30.3347 31.6683 29.7627 31.9169 29.1329C32.681 27.211 32.5053 22.6305 32.5053 20.5C32.5053 18.3695 32.681 13.7954 31.9169 11.8671L31.9132 11.8662ZM20.5 28.0045C19.0158 28.0045 17.5648 27.5643 16.3307 26.7397C15.0966 25.9151 14.1348 24.7431 13.5668 23.3718C12.9988 22.0006 12.8502 20.4917 13.1397 19.036C13.4293 17.5802 14.144 16.2431 15.1935 15.1935C16.2431 14.144 17.5802 13.4293 19.036 13.1397C20.4917 12.8502 22.0006 12.9988 23.3718 13.5668C24.7431 14.1348 25.9151 15.0966 26.7397 16.3307C27.5643 17.5648 28.0045 19.0158 28.0045 20.5C28.0057 21.4858 27.8124 22.4622 27.4357 23.3733C27.059 24.2843 26.5062 25.1121 25.8091 25.8091C25.1121 26.5062 24.2843 27.059 23.3733 27.4357C22.4622 27.8124 21.4858 28.0057 20.5 28.0045ZM28.3138 14.4324C27.9673 14.4325 27.6286 14.33 27.3404 14.1376C27.0522 13.9452 26.8275 13.6717 26.6948 13.3517C26.5621 13.0316 26.5273 12.6794 26.5948 12.3395C26.6623 11.9997 26.829 11.6875 27.0739 11.4424C27.3189 11.1974 27.631 11.0304 27.9708 10.9628C28.3106 10.8951 28.6629 10.9298 28.983 11.0623C29.3031 11.1949 29.5767 11.4194 29.7693 11.7075C29.9618 11.9955 30.0645 12.3342 30.0645 12.6807C30.0655 12.9108 30.021 13.1388 29.9337 13.3517C29.8463 13.5645 29.7178 13.7581 29.5555 13.9211C29.3932 14.0842 29.2002 14.2137 28.9878 14.302C28.7753 14.3904 28.5475 14.4359 28.3175 14.436L28.3138 14.4324ZM36.6071 0H4.39286C3.2278 0 2.11046 0.462818 1.28664 1.28664C0.462817 2.11046 0 3.2278 0 4.39286L0 36.6071C0 37.7722 0.462817 38.8895 1.28664 39.7134C2.11046 40.5372 3.2278 41 4.39286 41H36.6071C37.7722 41 38.8895 40.5372 39.7134 39.7134C40.5372 38.8895 41 37.7722 41 36.6071V4.39286C41 3.2278 40.5372 2.11046 39.7134 1.28664C38.8895 0.462818 37.7722 0 36.6071 0ZM35.0404 26.5402C34.9223 28.8858 34.3869 30.9642 32.6746 32.6719C30.9623 34.3796 28.8858 34.926 26.5429 35.0376C24.1259 35.174 16.8796 35.174 14.4626 35.0376C12.117 34.9196 10.0459 34.3833 8.33087 32.6719C6.61583 30.9605 6.07679 28.8812 5.96513 26.5402C5.82877 24.1223 5.82877 16.875 5.96513 14.4598C6.08319 12.1142 6.61217 10.0358 8.33087 8.32812C10.0496 6.6204 12.1261 6.08045 14.4626 5.96879C16.8796 5.83243 24.1259 5.83243 26.5429 5.96879C28.8885 6.08685 30.966 6.62315 32.6746 8.33453C34.3833 10.0459 34.9287 12.1252 35.0404 14.4708C35.1767 16.8796 35.1767 24.1204 35.0404 26.5402Z" fill="#FFF0E5"/>
</svg>
