<svg width="43" height="43" viewBox="0 0 43 43" fill="none" xmlns="http://www.w3.org/2000/svg">
<path d="M21.5 9.27266C14.8264 9.27266 9.40117 14.6979 9.39199 21.3715C9.39199 23.6572 10.0346 25.8879 11.2463 27.8064L11.5309 28.2654L10.31 32.7268L14.8906 31.5242L15.3313 31.7904C17.1855 32.892 19.3152 33.4795 21.4908 33.4795H21.5C28.1645 33.4795 33.7365 28.0543 33.7365 21.3807C33.7365 18.1494 32.3412 15.1109 30.0555 12.8252C27.7605 10.5303 24.7313 9.27266 21.5 9.27266ZM28.6143 26.5672C28.3113 27.4209 26.8609 28.192 26.1633 28.293C25.0066 28.4674 24.107 28.3756 21.8029 27.3842C18.1586 25.8053 15.7719 22.1334 15.5883 21.8947C15.4047 21.6561 14.1012 19.9211 14.1012 18.1311C14.1012 16.341 15.0375 15.4598 15.3771 15.0926C15.7076 14.7254 16.1023 14.6336 16.3502 14.6336C16.5889 14.6336 16.8367 14.6336 17.0479 14.6428C17.2682 14.652 17.5711 14.5602 17.8648 15.267C18.1678 15.9922 18.893 17.7822 18.9848 17.9658C19.0766 18.1494 19.1408 18.3605 19.0123 18.5992C18.3146 19.9945 17.5711 19.9395 17.9475 20.582C19.352 22.9963 20.7564 23.8316 22.8953 24.9057C23.2625 25.0893 23.4736 25.0617 23.6848 24.8139C23.8959 24.5752 24.5936 23.749 24.8322 23.391C25.0709 23.0238 25.3188 23.0881 25.6492 23.2074C25.9797 23.3268 27.7697 24.208 28.1369 24.3916C28.5041 24.5752 28.7428 24.667 28.8346 24.8139C28.9172 24.9883 28.9172 25.7227 28.6143 26.5672V26.5672ZM37.6562 0.9375H5.34375C2.91113 0.9375 0.9375 2.91113 0.9375 5.34375V37.6562C0.9375 40.0889 2.91113 42.0625 5.34375 42.0625H37.6562C40.0889 42.0625 42.0625 40.0889 42.0625 37.6562V5.34375C42.0625 2.91113 40.0889 0.9375 37.6562 0.9375ZM21.4908 35.9305C19.049 35.9305 16.6531 35.3154 14.5326 34.1588L6.8125 36.1875L8.87793 28.6418C7.60195 26.4387 6.93184 23.9326 6.93184 21.3623C6.94102 13.3393 13.4678 6.8125 21.4908 6.8125C25.383 6.8125 29.0365 8.32715 31.7904 11.0811C34.5352 13.835 36.1875 17.4885 36.1875 21.3807C36.1875 29.4037 29.5139 35.9305 21.4908 35.9305Z" fill="#FFF0E5"/>
</svg>
