<svg width="51" height="51" viewBox="0 0 51 51" fill="none" xmlns="http://www.w3.org/2000/svg">
<g clip-path="url(#clip0_177_4655)">
<path d="M25.4998 9.55773C20.2274 9.55773 15.9373 13.8479 15.9373 19.1202C15.9373 24.3926 20.2274 28.6827 25.4998 28.6827C30.7721 28.6827 35.0623 24.3926 35.0623 19.1202C35.0623 13.8479 30.7731 9.55773 25.4998 9.55773ZM25.4998 25.4952C21.9845 25.4952 19.1248 22.6354 19.1248 19.1202C19.1248 15.605 21.9845 12.7452 25.4998 12.7452C29.015 12.7452 31.8748 15.605 31.8748 19.1202C31.8748 22.6354 29.015 25.4952 25.4998 25.4952ZM42.9942 27.1268C44.3947 25.7014 44.9455 23.6076 44.4355 21.6623C43.799 19.2517 43.799 19.6252 44.4355 17.2107C44.9465 15.2663 44.3947 13.1735 42.9942 11.7461C41.243 9.98107 41.4432 10.2829 40.8117 7.90222C40.2987 5.94689 38.7827 4.40793 36.8552 3.88398C34.5343 3.25445 34.8013 3.42777 33.095 1.67066C31.6785 0.234292 29.5967 -0.329497 27.6633 0.194449C25.3225 0.842906 25.6611 0.832945 23.3333 0.194449C21.4158 -0.334477 19.321 0.234292 17.9045 1.67365C16.1813 3.43375 16.4891 3.24449 14.1473 3.88398C12.2178 4.40793 10.7018 5.94689 10.1878 7.90023C9.55429 10.2948 9.75152 9.97908 8.00537 11.7471C6.60486 13.1735 6.05402 15.2673 6.56501 17.2127C7.20152 19.6203 7.20152 19.2467 6.56501 21.6643C6.05402 23.6086 6.60585 25.7014 8.00636 27.1288C9.75749 28.8939 9.55728 28.5921 10.1888 30.9727C10.389 31.7338 10.7775 32.4031 11.2467 33.0028L6.49429 44.6949C6.06498 45.7478 6.84392 46.8903 7.96751 46.8903C8.0223 46.8903 7.67765 46.9023 13.2787 46.6881L16.8895 50.5022C17.2103 50.8408 17.6286 51.0002 18.043 51.0002C18.6576 51.0002 19.2612 50.6486 19.5232 50.0081L24.7477 37.1555C25.2354 36.9883 25.7649 36.988 26.2528 37.1545L31.4763 50.0081C31.7373 50.6486 32.3419 51.0002 32.9565 51.0002C33.3709 51.0002 33.7893 50.8408 34.11 50.5022L37.7208 46.6891C43.3219 46.9033 42.9772 46.8913 43.032 46.8913C44.1556 46.8913 44.9345 45.7488 44.5052 44.6959L39.7539 33.0048C40.223 32.4051 40.6115 31.7358 40.8117 30.9757C41.4452 28.5791 41.248 28.8949 42.9942 27.1268ZM17.5031 46.5128C15.2529 44.1361 15.8536 44.7706 14.6015 43.4478C12.7786 43.5175 13.6602 43.4837 10.3771 43.6102L13.9182 34.8964C13.9969 34.9223 14.0646 34.9711 14.1453 34.993C16.3237 35.5767 16.1833 35.4512 17.2919 36.5778C18.2821 37.5878 19.562 38.1287 20.8739 38.2213L17.5031 46.5128ZM40.6234 43.6092C37.3453 43.4837 38.2199 43.5175 36.399 43.4478C35.1479 44.7696 35.7476 44.1361 33.4974 46.5128L30.1206 38.2054C31.4365 38.1147 32.7165 37.5868 33.7086 36.5768C34.8451 35.4203 34.6877 35.5618 36.8552 34.992C36.9359 34.9701 37.0036 34.9213 37.0823 34.8964L40.6234 43.6092ZM37.7298 30.1629C37.5057 31.0176 36.8493 31.6899 36.0145 31.917C33.6618 32.5396 33.1866 32.5595 31.4355 34.3445C30.6386 35.1524 29.4244 35.3018 28.4721 34.6912C26.6662 33.5516 24.3323 33.5506 22.5264 34.6932C21.5801 35.2938 20.3599 35.1534 19.563 34.3425C17.8318 32.5814 17.3597 32.5545 14.984 31.916C14.1493 31.6889 13.4928 31.0166 13.2687 30.1609C12.4659 27.1099 12.5187 27.1537 10.2775 24.8946C9.66087 24.266 9.41783 23.3387 9.64593 22.4731C10.4577 19.438 10.4627 19.437 9.64593 16.4019C9.41882 15.5363 9.66187 14.6089 10.2775 13.9814C12.5107 11.7202 12.4629 11.784 13.2687 8.71105C13.4928 7.8564 14.1493 7.18404 14.984 6.95892C18.051 6.12121 17.9404 6.18197 20.1766 3.90888C20.6946 3.37996 21.5532 3.01638 22.4955 3.27039C25.5296 4.10511 25.4689 4.1071 28.5 3.27039C29.3158 3.04427 30.2123 3.28931 30.8219 3.9049C33.0422 6.18296 33.0003 6.14013 36.0175 6.95892C36.8483 7.18503 37.5057 7.8574 37.7298 8.71304C38.5326 11.7641 38.4799 11.7202 40.7211 13.9794C41.3377 14.6079 41.5807 15.5353 41.3526 16.4009C40.5368 19.441 40.5398 19.443 41.3526 22.4721C41.5797 23.3377 41.3367 24.2651 40.7211 24.8926C38.4888 27.1547 38.5356 27.09 37.7298 30.1629Z" fill="#027879"/>
</g>
<defs>
<clipPath id="clip0_177_4655">
<rect width="51" height="51" fill="white"/>
</clipPath>
</defs>
</svg>
