<svg width="50" height="50" viewBox="0 0 50 50" fill="none" xmlns="http://www.w3.org/2000/svg">
<path d="M49.2188 40.625H3.125V7.03125C3.125 6.59961 2.77539 6.25 2.34375 6.25H0.78125C0.349609 6.25 0 6.59961 0 7.03125V42.1875C0 43.0508 0.699219 43.75 1.5625 43.75H49.2188C49.6504 43.75 50 43.4004 50 42.9688V41.4062C50 40.9746 49.6504 40.625 49.2188 40.625ZM9.60352 25.6865C9.29883 25.9912 9.29883 26.4863 9.60352 26.791L10.708 27.8955C11.0127 28.2002 11.5078 28.2002 11.8125 27.8955L18.9111 20.8633L27.1816 29.1338C27.792 29.7441 28.7812 29.7441 29.3916 29.1338L38.5254 20L42.8262 24.3008C43.3096 24.7842 43.9033 25 44.4863 25C45.7051 25 46.875 24.0527 46.875 22.623V10.9561C46.875 10.083 46.167 9.375 45.2939 9.375H33.627C31.5137 9.375 30.4561 11.9297 31.9502 13.4238L36.3164 17.79L28.2871 25.8193L20.0225 17.5547C19.4141 16.9463 18.4287 16.9443 17.8184 17.5498L9.60352 25.6865ZM35.4453 12.5H43.75V20.8047L35.4453 12.5Z" fill="#027879"/>
</svg>
