<svg width="53" height="53" viewBox="0 0 53 53" fill="none" xmlns="http://www.w3.org/2000/svg">
<g clip-path="url(#clip0_177_4670)">
<path d="M19.139 45.6388C19.139 46.0292 18.9839 46.4037 18.7078 46.6798C18.4317 46.9559 18.0572 47.111 17.6667 47.111C17.2763 47.111 16.9018 46.9559 16.6257 46.6798C16.3496 46.4037 16.1945 46.0292 16.1945 45.6388V32.859L11.8009 30.5586L5.79695 46.1669C5.68981 46.4457 5.50041 46.6853 5.25389 46.854C5.00738 47.0226 4.71541 47.1122 4.41675 47.111C4.23589 47.1104 4.05664 47.077 3.88767 47.0126C3.52334 46.8722 3.22967 46.5929 3.07126 46.236C2.91286 45.8792 2.90268 45.4741 3.04298 45.1097L9.17018 29.1784L6.54411 27.8028L0.294523 44.0515C-0.124922 45.1448 -0.0930236 46.36 0.383205 47.4298C0.859434 48.4995 1.74101 49.3364 2.83411 49.7564C3.33855 49.9533 3.87522 50.0547 4.41675 50.0555C5.30991 50.0557 6.18218 49.7852 6.91845 49.2796C7.65472 48.774 8.22038 48.057 8.54081 47.2233L13.205 35.0958L13.2501 35.1179V45.6388C13.2501 46.8102 13.7154 47.9336 14.5437 48.7618C15.372 49.5901 16.4954 50.0555 17.6667 50.0555C18.8381 50.0555 19.9615 49.5901 20.7898 48.7618C21.6181 47.9336 22.0834 46.8102 22.0834 45.6388V35.9433L19.139 34.4011V45.6388ZM28.6219 41.2221C28.0041 41.2223 27.4019 41.4168 26.9007 41.7781C26.3995 42.1394 26.0247 42.6492 25.8293 43.2354L23.5556 50.0555H53.0001L43.6211 31.0711C43.3852 30.599 43.0267 30.199 42.5832 29.913C42.1397 29.6269 41.6274 29.4653 41.1001 29.4451C40.5727 29.4249 40.0496 29.5468 39.5854 29.798C39.1213 30.0493 38.7333 30.4207 38.4619 30.8733L35.1494 36.523L33.794 35.8237C33.8874 35.153 33.8209 34.4698 33.5999 33.8297C32.665 31.2404 31.9004 29.0625 31.2563 27.2194C29.1648 21.256 28.0312 18.1101 26.0437 15.9303C28.8455 15.1573 30.9204 12.6178 30.9204 9.56934C30.9204 7.81228 30.2224 6.12718 28.98 4.88475C27.7376 3.64233 26.0525 2.94434 24.2954 2.94434C22.5384 2.94434 20.8533 3.64233 19.6108 4.88475C18.3684 6.12718 17.6704 7.81228 17.6704 9.56934C17.6754 10.3744 17.8285 11.1716 18.1222 11.9212C17.5061 11.8301 16.8845 11.7821 16.2617 11.7777H9.56952C8.92221 11.7776 8.28279 11.9198 7.69654 12.1943C7.11028 12.4687 6.59152 12.8687 6.17697 13.3658L2.49642 17.7825C2.12509 18.2282 1.84519 18.7426 1.67271 19.2965C1.50023 19.8503 1.43855 20.4327 1.49119 21.0104C1.54382 21.5881 1.70974 22.1498 1.97947 22.6634C2.24921 23.1769 2.61747 23.6323 3.06322 24.0036C3.51475 24.3788 4.03732 24.6592 4.59967 24.8279C5.16203 24.9965 5.75263 25.0501 6.33616 24.9853L33.6532 39.0635L32.389 41.2221H28.6219ZM24.2917 5.88878C25.0197 5.88878 25.7313 6.10464 26.3366 6.50907C26.9418 6.91349 27.4136 7.48832 27.6921 8.16085C27.9707 8.83338 28.0436 9.57342 27.9016 10.2874C27.7596 11.0013 27.409 11.6571 26.8943 12.1719C26.3796 12.6866 25.7237 13.0372 25.0098 13.1792C24.2958 13.3212 23.5558 13.2483 22.8833 12.9697C22.2107 12.6912 21.6359 12.2194 21.2315 11.6141C20.8271 11.0089 20.6112 10.2973 20.6112 9.56934C20.6112 8.59319 20.999 7.65703 21.6892 6.96679C22.3794 6.27655 23.3156 5.88878 24.2917 5.88878ZM18.8804 28.135L21.3326 25.7086C21.7522 26.8376 22.261 28.2693 22.918 30.1418C22.9281 30.1703 22.9401 30.2053 22.9502 30.2338L18.8804 28.135ZM26.7651 32.2048C26.3768 31.1098 26.0124 30.0774 25.6959 29.1683C24.151 24.7654 23.3109 22.4228 22.4892 20.9947L16.5497 26.9324L9.6827 23.3907L15.4078 17.6666H10.2596L7.02074 21.5532C6.89744 21.7034 6.74563 21.8277 6.57405 21.919C6.40248 22.0102 6.21455 22.0666 6.02108 22.0848C5.82762 22.1031 5.63245 22.0828 5.44685 22.0253C5.26124 21.9677 5.08886 21.874 4.93966 21.7495C4.79045 21.625 4.66736 21.4722 4.57749 21.2999C4.48763 21.1276 4.43276 20.9393 4.41606 20.7457C4.39935 20.5521 4.42114 20.3571 4.48016 20.1719C4.53919 19.9868 4.63428 19.8152 4.75996 19.6669L7.951 15.7941C8.22728 15.4588 8.57434 15.1888 8.96727 15.0035C9.36021 14.8181 9.78929 14.7221 10.2237 14.7221H16.1458C17.7551 14.7221 19.3598 15.0423 20.8063 15.7499C24.7951 17.7006 25.4014 19.424 28.4729 28.1939C29.0636 29.8759 29.7675 31.8799 30.5938 34.1748L26.7651 32.2048ZM34.0756 44.1666L34.9286 42.7118L40.9748 32.3888H40.9858L48.2614 47.111H27.642L28.6228 44.1666H34.0756Z" fill="#027879"/>
</g>
<defs>
<clipPath id="clip0_177_4670">
<rect width="53" height="53" fill="white"/>
</clipPath>
</defs>
</svg>
