<svg width="50" height="50" viewBox="0 0 50 50" fill="none" xmlns="http://www.w3.org/2000/svg">
<g clip-path="url(#clip0_177_4653)">
<path d="M49.2188 18.75H38.1475L48.5703 8.32715C50.9248 5.97266 50.2803 2.00391 47.3027 0.514648C46.6256 0.176245 45.879 4.91891e-05 45.1221 0C44.085 0 43.0557 0.330078 42.1943 0.975586L18.4951 18.75H0.78125C0.349609 18.75 0 19.0996 0 19.5312V21.0938C0 21.5254 0.349609 21.875 0.78125 21.875H3.125V25C3.125 32.9512 8.08203 39.7295 15.0674 42.4561C13.8213 44.0947 12.9482 46.0332 12.6338 48.1631C12.4922 49.123 13.2178 50 14.1885 50H35.8115C36.7822 50 37.5078 49.124 37.3662 48.1631C37.0527 46.0332 36.1797 44.0938 34.9326 42.4561C41.918 39.7295 46.875 32.9512 46.875 25V21.875H49.2188C49.6504 21.875 50 21.5254 50 21.0938V19.5312C50 19.0996 49.6504 18.75 49.2188 18.75ZM44.0684 3.47559C45.7852 2.18848 47.8975 4.58008 46.3604 6.11719L33.7285 18.75H23.7031L44.0684 3.47559ZM43.75 25C43.75 31.4756 39.8428 37.1846 33.7969 39.5449L29.9385 41.0508L32.4463 44.3477C33.04 45.1289 33.5078 45.9834 33.832 46.875H16.1689C16.4932 45.9834 16.96 45.1289 17.5547 44.3477L20.0625 41.0508L16.2041 39.5449C10.1572 37.1846 6.25 31.4756 6.25 25V21.875H43.75V25Z" fill="#027879"/>
</g>
<defs>
<clipPath id="clip0_177_4653">
<rect width="50" height="50" fill="white"/>
</clipPath>
</defs>
</svg>
