<svg width="35" height="35" viewBox="0 0 35 35" fill="white" stroke='white' xmlns="http://www.w3.org/2000/svg">
<path d="M31.7188 4.375H3.28125C1.46973 4.375 0 5.84473 0 7.65625V27.3438C0 29.1553 1.46973 30.625 3.28125 30.625H31.7188C33.5303 30.625 35 29.1553 35 27.3438V7.65625C35 5.84473 33.5303 4.375 31.7188 4.375ZM3.28125 6.5625H31.7188C32.3203 6.5625 32.8125 7.05469 32.8125 7.65625V10.4863C31.3154 11.751 29.1758 13.4941 22.5176 18.7783C21.3623 19.6943 19.0859 21.9023 17.5 21.875C15.9141 21.9023 13.6309 19.6943 12.4824 18.7783C5.82422 13.4941 3.68457 11.751 2.1875 10.4863V7.65625C2.1875 7.05469 2.67969 6.5625 3.28125 6.5625ZM31.7188 28.4375H3.28125C2.67969 28.4375 2.1875 27.9453 2.1875 27.3438V13.3301C3.74609 14.6084 6.20703 16.584 11.1221 20.4873C12.5234 21.6084 14.998 24.0762 17.5 24.0625C19.9883 24.083 22.4424 21.6357 23.8779 20.4873C28.793 16.584 31.2539 14.6084 32.8125 13.3301V27.3438C32.8125 27.9453 32.3203 28.4375 31.7188 28.4375Z" fill="#0A1839"/>
</svg>
