<svg width="36" height="36" viewBox="0 0 36 36" fill="current" xmlns="http://www.w3.org/2000/svg">
<path d="M18.0074 9.91367C13.5355 9.91367 9.92852 13.5207 9.92852 17.9926C9.92852 22.4645 13.5355 26.0715 18.0074 26.0715C22.4793 26.0715 26.0863 22.4645 26.0863 17.9926C26.0863 13.5207 22.4793 9.91367 18.0074 9.91367ZM18.0074 23.2449C15.1176 23.2449 12.7551 20.8895 12.7551 17.9926C12.7551 15.0957 15.1105 12.7402 18.0074 12.7402C20.9043 12.7402 23.2598 15.0957 23.2598 17.9926C23.2598 20.8895 20.8973 23.2449 18.0074 23.2449V23.2449ZM28.3012 9.5832C28.3012 10.6309 27.4574 11.4676 26.4168 11.4676C25.3691 11.4676 24.5324 10.6238 24.5324 9.5832C24.5324 8.54258 25.3762 7.69883 26.4168 7.69883C27.4574 7.69883 28.3012 8.54258 28.3012 9.5832ZM33.652 11.4957C33.5324 8.97148 32.9559 6.73555 31.1066 4.89336C29.2645 3.05117 27.0285 2.47461 24.5043 2.34805C21.9027 2.20039 14.1051 2.20039 11.5035 2.34805C8.98633 2.46758 6.75039 3.04414 4.90117 4.88633C3.05195 6.72852 2.48242 8.96445 2.35586 11.4887C2.2082 14.0902 2.2082 21.8879 2.35586 24.4895C2.47539 27.0137 3.05195 29.2496 4.90117 31.0918C6.75039 32.934 8.9793 33.5105 11.5035 33.6371C14.1051 33.7848 21.9027 33.7848 24.5043 33.6371C27.0285 33.5176 29.2645 32.941 31.1066 31.0918C32.9488 29.2496 33.5254 27.0137 33.652 24.4895C33.7996 21.8879 33.7996 14.0973 33.652 11.4957V11.4957ZM30.291 27.2809C29.7426 28.659 28.6809 29.7207 27.2957 30.2762C25.2215 31.0988 20.2996 30.909 18.0074 30.909C15.7152 30.909 10.7863 31.0918 8.71914 30.2762C7.34102 29.7277 6.2793 28.666 5.72383 27.2809C4.90117 25.2066 5.09102 20.2848 5.09102 17.9926C5.09102 15.7004 4.9082 10.7715 5.72383 8.7043C6.27227 7.32617 7.33398 6.26445 8.71914 5.70898C10.7934 4.88633 15.7152 5.07617 18.0074 5.07617C20.2996 5.07617 25.2285 4.89336 27.2957 5.70898C28.6738 6.25742 29.7355 7.31914 30.291 8.7043C31.1137 10.7785 30.9238 15.7004 30.9238 17.9926C30.9238 20.2848 31.1137 25.2137 30.291 27.2809Z" fill="#0A1839"/>
</svg>
